<svg width="54" height="33" viewBox="0 0 54 33" fill="none" xmlns="http://www.w3.org/2000/svg">
<path d="M41.5129 18.0395L41.0157 17.4434L30.1936 4.35794L29.4317 3.43774C27.4946 1.36584 24.6018 0.0347247 21.3539 0H0.090803L0.0197754 0.0868116L5.23708 6.39512L12.3657 15.0126L12.8629 15.6145L20.7018 25.0944L22.1029 26.7843L23.9045 28.9662C23.9561 29.0298 24.0013 29.0877 24.0594 29.1514C26.0159 31.4895 29.1282 33 32.6473 33H53.8846L41.5322 18.0626C41.5258 18.0568 41.5193 18.0452 41.5129 18.0395Z" fill="#263038"/>
<path d="M15.6067 29.5275L14.8706 28.6651L9.17549 21.7781L0 32.89L22.477 32.9247C21.1856 32.7858 19.7715 32.3749 18.4995 31.7209C17.4534 31.1827 16.5365 30.4998 15.6067 29.5275Z" fill="#263038"/>
<path d="M38.3029 3.39144L39.039 4.25377L44.7342 11.1408L53.9097 0.0289372L31.4326 0C32.724 0.138899 34.1381 0.549807 35.4102 1.20379C36.4562 1.73623 37.3796 2.41915 38.3029 3.39144Z" fill="#EB462E"/>
</svg>
