<?xml version="1.0" encoding="utf-8"?>
<!-- Generator: Adobe Illustrator 26.3.1, SVG Export Plug-In . SVG Version: 6.00 Build 0)  -->
<svg version="1.1" id="Layer_1" xmlns="http://www.w3.org/2000/svg" xmlns:xlink="http://www.w3.org/1999/xlink" x="0px" y="0px"
	 viewBox="0 0 1080 1080" style="enable-background:new 0 0 1080 1080;" xml:space="preserve">
<style type="text/css">
	.st0{opacity:0.7;fill:#F4F4F4;}
	.st1{fill:#006666;}
	.st2{fill:#F4F4F4;}
	.st3{fill:#E2E2E2;}
	.st4{fill:#FFFFFF;}
	.st5{opacity:0.7;fill:#C87367;}
	.st6{fill:#EB462E;}
	.st7{fill:#D22C14;}
	.st8{opacity:0.7;fill:#3B4A56;}
	.st9{fill:#263038;}
</style>
<g>
	<path class="st0" d="M901.4-847.7L194.7-308.8c-20.4-11.5-34.1-33.3-34.1-58.4v-434.4c0-37,30-67,67-67h613
		C863.5-868.5,884.6-860.8,901.4-847.7z"/>
	
		<ellipse transform="matrix(0.7071 -0.7071 0.7071 0.7071 663.9947 434.3307)" class="st1" cx="856.3" cy="-584.3" rx="42.9" ry="42.9"/>
	<path class="st2" d="M940-653.9H821.7c-24.9,0-45.1,20.2-45.1,45.1v48.9c0,24.9,20.2,45.1,45.1,45.1H940v115.2
		c0,54.9-44.5,99.5-99.5,99.5h-613c-11.9,0-23-3.1-32.7-8.5c0,0,0,0-0.1,0c0,0,0,0-0.1,0l706.7-538.9c0,0,0,0,0.1,0c0,0,0,0,0,0
		c23.4,18.2,38.5,46.6,38.5,78.6V-653.9z"/>
	<path class="st3" d="M227.3-282.6l465.3,126.8c27.4,7.5,54.3-13.1,54.3-41.5v-85.3H227.3z"/>
	
		<ellipse transform="matrix(0.2298 -0.9732 0.9732 0.2298 1228.2631 383.2829)" class="st4" cx="856.3" cy="-584.3" rx="42.9" ry="42.9"/>
	
		<ellipse transform="matrix(0.2298 -0.9732 0.9732 0.2298 1228.2631 383.2829)" class="st2" cx="856.3" cy="-584.3" rx="42.9" ry="42.9"/>
	<g>
		<path class="st5" d="M1972.4-847.7l-706.7,538.9c-20.4-11.5-34.1-33.3-34.1-58.4v-434.4c0-37,30-67,67-67h613
			C1934.5-868.5,1955.6-860.8,1972.4-847.7z"/>
		<path class="st6" d="M2011-653.9h-118.3c-24.9,0-45.1,20.2-45.1,45.1v48.9c0,24.9,20.2,45.1,45.1,45.1H2011v115.2
			c0,54.9-44.5,99.5-99.5,99.5h-613c-11.9,0-23-3.1-32.7-8.5c0,0,0,0-0.1,0c0,0,0,0-0.1,0l706.7-538.9c0,0,0,0,0.1,0c0,0,0,0,0,0
			c23.4,18.2,38.5,46.6,38.5,78.6V-653.9z"/>
		<path class="st7" d="M1298.3-282.6l465.3,126.8c27.4,7.5,54.3-13.1,54.3-41.5v-85.3H1298.3z"/>
		
			<ellipse transform="matrix(0.2298 -0.9732 0.9732 0.2298 2053.1975 1425.6324)" class="st6" cx="1927.3" cy="-584.3" rx="42.9" ry="42.9"/>
	</g>
	<g>
		<path class="st8" d="M891.7,248.3l-707,539.2c-20.4-11.5-34.2-33.3-34.2-58.4V294.5c0-37,30-67,67-67h613.3
			C853.8,227.5,874.9,235.3,891.7,248.3z"/>
		
			<ellipse transform="matrix(0.7071 -0.7071 0.7071 0.7071 -113.922 748.5268)" class="st1" cx="846.6" cy="511.8" rx="42.9" ry="42.9"/>
		<path class="st9" d="M930.3,442.2H812c-24.9,0-45.1,20.2-45.1,45.1v48.9c0,24.9,20.2,45.1,45.1,45.1h118.4v115.2
			c0,55-44.5,99.5-99.5,99.5H217.6c-11.9,0-23-3.1-32.7-8.5c0,0,0,0-0.1,0c0,0,0,0-0.1,0l707-539.2c0,0,0,0,0.1,0c0,0,0,0,0,0
			c23.4,18.2,38.5,46.6,38.5,78.6V442.2z"/>
		<path class="st9" d="M217.3,813.6l465.5,126.9c27.4,7.5,54.3-13.1,54.3-41.5v-85.3H217.3z"/>
		
			<ellipse transform="matrix(0.2298 -0.9732 0.9732 0.2298 153.9952 1218.1401)" class="st4" cx="846.6" cy="511.8" rx="42.9" ry="42.9"/>
		
			<ellipse transform="matrix(0.2298 -0.9732 0.9732 0.2298 153.9952 1218.1401)" class="st9" cx="846.6" cy="511.8" rx="42.9" ry="42.9"/>
	</g>
</g>
</svg>
